{"title":"Seventh.Son.2015.HC.WEBRip.XviD.MP3-RARBG","uid":11772326,"size":1384722202,"categoryP":"video","categoryS":"movies","magnet":"?xt=urn:btih:1e8809b7f10484a1397d311538b7f784caad2025&amp;dn=Seventh.Son.2015.HC.WEBRip.XviD.MP3-RARBG&amp;tr=udp%3A%2F%2Ftracker.openbittorrent.com%3A80&amp;tr=udp%3A%2F%2Fopen.demonii.com%3A1337&amp;tr=udp%3A%2F%2Ftracker.coppersurfer.tk%3A6969&amp;tr=udp%3A%2F%2Fexodus.desync.com%3A6969","seeders":17,"leechers":2,"uploader":"vickey1992","files":4,"time":1427119555,"description":" &lt;a href=&quot;http://rarbg.com/&quot; rel=&quot;nofollow&quot; target=&quot;_NEW&quot;&gt;http://rarbg.com/&lt;/a&gt;\n\n\nSeventh.Son.2015.HC.WEBRip.XviD.MP3-RARBG\n\nInfo:\n\n[mediainfo]\n\nFormat : AVI\nFormat/Info : Audio Video Interleave\nFile size : 1.29 GiB\nDuration : 1h 42mn\nOverall bit rate : 1 802 Kbps\nMovie name : RARBG.COM - Seventh.Son.2015.HC.WEBRip.XviD.MP3-RARBG\nWriting library : VirtualDub build 35491/release\nComment : RARBG.COM - Seventh.Son.2015.HC.WEBRip.XviD.MP3-RARBG\n\nVideo\nID : 0\nFormat : MPEG-4 Visual\nFormat profile : Simple@L5\nFormat settings, BVOP : No\nFormat settings, QPel : No\nFormat settings, GMC : No warppoints\nFormat settings, Matrix : Default (H.263)\nCodec ID : XVID\nCodec ID/Hint : XviD\nDuration : 1h 42mn\nBit rate : 1 598 Kbps\nWidth : 720 pixels\nHeight : 304 pixels\nDisplay aspect ratio : 2.35:1\nFrame rate : 24.000 fps\nColor space : YUV\nChroma subsampling : 4:2:0\nBit depth : 8 bits\nScan type : Progressive\nCompression mode : Lossy\nBits/(Pixel*Frame) : 0.304\nStream size : 1.14 GiB (89%)\nWriting library : Lavc56.20.100\n\nAudio\nID : 1\nFormat : MPEG Audio\nFormat version : Version 1\nFormat profile : Layer 3\nMode : Joint stereo\nMode extension : MS Stereo\nCodec ID : 55\nCodec ID/Hint : MP3\nDuration : 1h 42mn\nBit rate mode : Constant\nBit rate : 192 Kbps\nChannel(s) : 2 channels\nSampling rate : 44.1 KHz\nCompression mode : Lossy\nStream size : 141 MiB (11%)\nAlignment : Aligned on interleaves\nInterleave, duration : 26 ms (0.63 video frame)\nInterleave, preload duration : 522 ms\nWriting library : LAME3.99.5\n\n\n\nNotes:\nHardcoded Chinese subtitles.\nGreetz to all! :)","torrent":{"xt":"urn:btih:1e8809b7f10484a1397d311538b7f784caad2025","amp;dn":"Seventh.Son.2015.HC.WEBRip.XviD.MP3-RARBG","amp;tr":["udp%3A%2F%2Ftracker.openbittorrent.com%3A80","udp%3A%2F%2Fopen.demonii.com%3A1337","udp%3A%2F%2Ftracker.coppersurfer.tk%3A6969","udp%3A%2F%2Fexodus.desync.com%3A6969"],"infoHash":"1e8809b7f10484a1397d311538b7f784caad2025","infoHashBuffer":{"type":"Buffer","data":[30,136,9,183,241,4,132,161,57,125,49,21,56,183,247,132,202,173,32,37]},"announce":[],"urlList":[]}}